<svg width="409" height="272" viewBox="0 0 409 272" fill="none" xmlns="http://www.w3.org/2000/svg">
<path d="M359.25 30.3372L346.686 26.9588C346.613 26.9401 346.536 26.9505 346.472 26.9878C346.407 27.025 346.359 27.0861 346.339 27.158C346.323 27.2302 346.334 27.306 346.371 27.3702C346.408 27.4344 346.468 27.4824 346.538 27.5045L359.163 30.7703C359.221 30.7863 359.282 30.7788 359.334 30.7496C359.386 30.7204 359.425 30.6718 359.441 30.6144C359.448 30.5835 359.449 30.5514 359.444 30.5202C359.438 30.4889 359.426 30.4592 359.408 30.433C359.39 30.4068 359.366 30.3848 359.339 30.3683C359.312 30.3517 359.282 30.3411 359.25 30.3372V30.3372Z" fill="black"/>
<path d="M333.955 24.24C329.66 23.4771 325.317 23.0052 320.958 22.8275C320.905 22.8252 320.853 22.8332 320.804 22.8511C320.754 22.869 320.709 22.8965 320.671 22.9319C320.632 22.9673 320.601 23.01 320.579 23.0575C320.556 23.105 320.544 23.1565 320.542 23.2088C320.539 23.2615 320.548 23.314 320.566 23.3634C320.585 23.4127 320.613 23.4577 320.65 23.4958C320.686 23.5339 320.73 23.5641 320.778 23.5848C320.827 23.6055 320.879 23.6161 320.932 23.6161V23.6161C325.248 23.7607 329.549 24.192 333.808 24.9072C333.852 24.9146 333.897 24.9134 333.94 24.9035C333.983 24.8935 334.024 24.8752 334.061 24.8494C334.097 24.8237 334.128 24.791 334.151 24.7534C334.175 24.7157 334.191 24.6737 334.198 24.6299C334.214 24.5463 334.198 24.4597 334.153 24.3874C334.108 24.3151 334.037 24.2624 333.955 24.24V24.24Z" fill="black"/>
<path d="M307.966 24.0487C306.918 24.404 305.852 24.6639 304.829 25.1144C303.789 25.5447 302.811 26.1098 301.918 26.7952C301.01 27.4791 300.229 28.3179 299.613 29.2731C298.996 30.2304 298.545 31.2848 298.279 32.392C298.255 32.4547 298.245 32.5215 298.25 32.5882C298.254 32.6549 298.272 32.7199 298.303 32.7791C298.334 32.8383 298.377 32.8903 298.43 32.9317C298.482 32.9731 298.543 33.0031 298.608 33.0196C298.672 33.0361 298.74 33.0387 298.806 33.0274C298.872 33.0162 298.934 32.9911 298.99 32.954C299.046 32.9169 299.093 32.8685 299.128 32.812C299.164 32.7555 299.187 32.6921 299.197 32.626C299.438 31.6225 299.842 30.6654 300.393 29.7929C300.953 28.924 301.659 28.1589 302.481 27.5316C303.312 26.8939 304.22 26.3641 305.185 25.9548C306.147 25.5216 307.195 25.2617 308.2 24.9238H308.252C308.362 24.8846 308.453 24.8033 308.503 24.6977C308.553 24.5921 308.56 24.4709 308.521 24.3606C308.488 24.2458 308.412 24.1486 308.308 24.0901C308.204 24.0316 308.081 24.0167 307.966 24.0487V24.0487Z" fill="black"/>
<path d="M300.236 45.3426C301.944 49.3639 304.021 53.2184 306.44 56.8569C306.47 56.932 306.516 56.9994 306.575 57.0543C306.634 57.1091 306.705 57.15 306.782 57.1738C306.859 57.1976 306.94 57.2038 307.02 57.1918C307.1 57.1799 307.176 57.1501 307.242 57.1048C307.309 57.0594 307.365 56.9997 307.405 56.9299C307.446 56.8601 307.47 56.7821 307.476 56.7017C307.482 56.6214 307.47 56.5406 307.441 56.4655C307.412 56.3904 307.366 56.3228 307.307 56.2678C304.895 52.6982 302.818 48.9133 301.102 44.9614C301.078 44.8997 301.041 44.8436 300.994 44.7962C300.948 44.7488 300.892 44.7112 300.831 44.6854C300.77 44.6596 300.704 44.6462 300.638 44.646C300.571 44.6458 300.505 44.6588 300.444 44.6842C300.335 44.7494 300.253 44.8525 300.215 44.9739C300.176 45.0952 300.184 45.2264 300.236 45.3426Z" fill="black"/>
<path d="M314.099 67.4051L322.573 77.2993C322.626 77.361 322.69 77.4117 322.762 77.4483C322.834 77.4849 322.913 77.5066 322.994 77.5123C323.074 77.5179 323.156 77.5074 323.232 77.4812C323.309 77.455 323.379 77.4138 323.44 77.3599C323.503 77.309 323.556 77.2456 323.594 77.1736C323.632 77.1017 323.655 77.0228 323.661 76.9417C323.668 76.8606 323.658 76.779 323.631 76.7019C323.605 76.6249 323.564 76.554 323.509 76.4936V76.4936L315.017 66.6947C314.969 66.6343 314.91 66.5842 314.842 66.5475C314.774 66.5107 314.7 66.4879 314.623 66.4806C314.547 66.4733 314.469 66.4815 314.396 66.5049C314.322 66.5282 314.255 66.5661 314.196 66.6163C314.138 66.6665 314.09 66.728 314.056 66.7971C314.022 66.8662 314.002 66.9415 313.998 67.0184C313.994 67.0953 314.005 67.1722 314.031 67.2447C314.058 67.3171 314.098 67.3834 314.151 67.4398L314.099 67.4051Z" fill="black"/>
<path d="M331.435 86.8604L340.317 96.3474C340.437 96.4772 340.605 96.5538 340.782 96.5603C340.959 96.5668 341.131 96.5027 341.261 96.382C341.391 96.2614 341.468 96.0941 341.474 95.917C341.481 95.7399 341.417 95.5675 341.296 95.4377L332.301 85.994C332.185 85.8818 332.03 85.8191 331.868 85.8191C331.707 85.8191 331.551 85.8818 331.435 85.994C331.325 86.1113 331.263 86.2663 331.263 86.4272C331.263 86.5882 331.325 86.7431 331.435 86.8604V86.8604Z" fill="black"/>
<path d="M348.936 105.994C350.314 107.657 351.761 109.268 353.078 110.975L357.056 116.061C357.114 116.137 357.187 116.2 357.27 116.248C357.353 116.295 357.445 116.326 357.54 116.338C357.635 116.35 357.731 116.343 357.824 116.318C357.916 116.293 358.003 116.25 358.078 116.191C358.23 116.07 358.328 115.894 358.353 115.702C358.377 115.509 358.325 115.315 358.208 115.16V115.16L354.161 110.031C352.818 108.298 351.363 106.713 349.968 105.04C349.848 104.901 349.679 104.813 349.496 104.797C349.313 104.781 349.13 104.837 348.988 104.954C348.847 105.073 348.757 105.244 348.74 105.428C348.722 105.613 348.777 105.797 348.893 105.942L348.936 105.994Z" fill="black"/>
<path d="M363.748 127.037C365.646 130.822 366.649 134.993 366.677 139.227C366.665 139.332 366.676 139.438 366.709 139.539C366.741 139.64 366.794 139.733 366.865 139.811C366.936 139.89 367.022 139.953 367.119 139.996C367.216 140.039 367.32 140.061 367.426 140.061C367.532 140.061 367.636 140.039 367.733 139.996C367.83 139.953 367.916 139.89 367.987 139.811C368.058 139.733 368.111 139.64 368.143 139.539C368.176 139.438 368.187 139.332 368.176 139.227C368.222 136.988 367.951 134.753 367.37 132.59C366.801 130.449 366.039 128.364 365.091 126.361C365.006 126.184 364.855 126.047 364.67 125.98C364.485 125.913 364.281 125.923 364.103 126.006C364.009 126.047 363.926 126.108 363.856 126.183C363.787 126.259 363.734 126.347 363.701 126.444C363.668 126.541 363.655 126.643 363.663 126.745C363.671 126.847 363.7 126.947 363.748 127.037Z" fill="black"/>
<path d="M361.89 150.412C361.128 151.131 360.409 151.885 359.577 152.552C358.745 153.219 357.913 153.86 357.029 154.441C355.268 155.612 353.389 156.597 351.423 157.378C351.232 157.453 351.079 157.602 350.998 157.79C350.917 157.979 350.914 158.192 350.99 158.383C351.066 158.573 351.214 158.726 351.403 158.807C351.591 158.889 351.804 158.892 351.995 158.816V158.816C355.091 157.571 357.975 155.855 360.547 153.73C361.414 153.037 362.194 152.231 363 151.46C363.071 151.39 363.127 151.306 363.166 151.214C363.205 151.122 363.225 151.023 363.225 150.923C363.225 150.823 363.205 150.724 363.166 150.632C363.127 150.54 363.071 150.456 363 150.386C362.857 150.244 362.664 150.165 362.462 150.165C362.261 150.165 362.068 150.244 361.925 150.386L361.89 150.412Z" fill="black"/>
<path d="M338.987 159.709C334.701 159.756 330.423 159.326 326.232 158.427C326.026 158.384 325.812 158.424 325.635 158.538C325.459 158.653 325.336 158.832 325.292 159.038C325.248 159.244 325.288 159.458 325.403 159.635C325.517 159.811 325.697 159.934 325.903 159.978V159.978C330.198 160.905 334.584 161.35 338.979 161.303C339.088 161.315 339.2 161.303 339.305 161.269C339.41 161.235 339.507 161.179 339.589 161.105C339.671 161.031 339.736 160.941 339.781 160.84C339.826 160.739 339.85 160.63 339.85 160.519C339.85 160.409 339.826 160.3 339.781 160.199C339.736 160.098 339.671 160.007 339.589 159.934C339.507 159.86 339.41 159.804 339.305 159.77C339.2 159.736 339.088 159.724 338.979 159.736L338.987 159.709Z" fill="black"/>
<path d="M313.86 154.932C309.787 153.529 305.775 151.935 301.798 150.236C301.6 150.152 301.377 150.15 301.178 150.229C300.978 150.309 300.818 150.464 300.732 150.661C300.659 150.862 300.663 151.083 300.743 151.281C300.823 151.479 300.973 151.641 301.166 151.735C305.16 153.468 309.216 155.036 313.297 156.457C313.499 156.527 313.721 156.514 313.913 156.421C314.106 156.327 314.254 156.161 314.324 155.959C314.394 155.757 314.381 155.535 314.287 155.342C314.194 155.15 314.028 155.002 313.825 154.932H313.86Z" fill="black"/>
<path d="M289.968 144.918L278.192 139.408C278.004 139.374 277.811 139.403 277.641 139.491C277.471 139.579 277.335 139.72 277.254 139.893C277.173 140.066 277.152 140.261 277.193 140.447C277.234 140.633 277.336 140.801 277.482 140.924L289.266 146.408C289.365 146.461 289.474 146.493 289.585 146.503C289.697 146.512 289.809 146.499 289.916 146.464C290.022 146.428 290.12 146.371 290.203 146.297C290.287 146.222 290.354 146.131 290.402 146.03C290.449 145.928 290.475 145.818 290.478 145.706C290.481 145.594 290.462 145.483 290.42 145.379C290.379 145.275 290.317 145.18 290.237 145.101C290.158 145.022 290.064 144.959 289.96 144.918H289.968Z" fill="black"/>
<path d="M266.217 134.215C264.19 133.418 262.136 132.673 260.039 132.015C258.991 131.686 257.942 131.382 256.868 131.149C255.793 130.915 254.684 130.698 253.592 130.473C253.384 130.462 253.18 130.526 253.015 130.653C252.851 130.781 252.738 130.963 252.697 131.167C252.656 131.371 252.69 131.583 252.792 131.764C252.894 131.945 253.058 132.083 253.254 132.153H253.358C254.389 132.37 255.412 132.517 256.452 132.786C257.491 133.054 258.514 133.34 259.528 133.652C261.573 134.284 263.6 135.021 265.593 135.8C265.701 135.872 265.824 135.919 265.952 135.937C266.08 135.955 266.211 135.945 266.335 135.906C266.458 135.867 266.571 135.801 266.666 135.712C266.761 135.624 266.834 135.515 266.881 135.394C266.928 135.274 266.948 135.144 266.938 135.015C266.928 134.886 266.89 134.76 266.825 134.648C266.761 134.536 266.672 134.439 266.565 134.366C266.458 134.292 266.337 134.244 266.209 134.224L266.217 134.215Z" fill="black"/>
<path d="M243.566 137.59C243.521 139.823 243.724 142.055 244.172 144.244C244.562 146.41 245.039 148.515 245.541 150.638C245.62 150.825 245.763 150.979 245.945 151.072C246.126 151.165 246.334 151.191 246.533 151.145C246.732 151.1 246.908 150.986 247.031 150.823C247.154 150.661 247.215 150.46 247.205 150.257C246.728 148.151 246.234 146.046 245.862 143.949C245.442 141.888 245.251 139.788 245.29 137.685V137.685C245.296 137.571 245.279 137.458 245.241 137.35C245.202 137.243 245.143 137.144 245.067 137.06C244.99 136.975 244.898 136.907 244.795 136.858C244.692 136.809 244.581 136.781 244.467 136.775C244.353 136.77 244.239 136.787 244.132 136.825C244.025 136.863 243.926 136.922 243.841 136.999C243.757 137.075 243.688 137.167 243.639 137.27C243.591 137.373 243.563 137.485 243.557 137.599L243.566 137.59Z" fill="black"/>
<path d="M248.609 163.266C249.597 167.468 250.498 171.688 251.131 175.942C251.209 176.112 251.34 176.253 251.505 176.342C251.67 176.432 251.86 176.465 252.045 176.438C252.231 176.411 252.403 176.324 252.535 176.191C252.667 176.057 252.752 175.885 252.777 175.699C252.145 171.367 251.235 167.113 250.247 162.876C250.248 162.745 250.219 162.615 250.162 162.497C250.105 162.379 250.022 162.275 249.92 162.193C249.817 162.111 249.697 162.054 249.569 162.026C249.441 161.997 249.308 161.998 249.18 162.028C249.052 162.059 248.933 162.118 248.831 162.201C248.73 162.284 248.649 162.389 248.594 162.509C248.539 162.628 248.512 162.758 248.514 162.889C248.517 163.021 248.55 163.149 248.609 163.266V163.266Z" fill="black"/>
<path d="M251.991 188.748L251.801 191.944C251.697 193.01 251.576 194.067 251.428 195.124C251.134 197.238 250.703 199.33 250.137 201.388C250.091 201.592 250.126 201.806 250.233 201.985C250.341 202.165 250.513 202.296 250.715 202.352C250.917 202.407 251.132 202.383 251.316 202.285C251.501 202.186 251.64 202.02 251.705 201.821C252.291 199.698 252.739 197.539 253.049 195.358C253.205 194.275 253.326 193.183 253.43 192.092L253.629 188.799C253.645 188.687 253.638 188.572 253.608 188.463C253.578 188.353 253.525 188.251 253.454 188.163C253.382 188.074 253.293 188.002 253.192 187.95C253.091 187.898 252.98 187.867 252.867 187.86C252.753 187.853 252.639 187.869 252.533 187.908C252.426 187.947 252.328 188.007 252.246 188.086C252.164 188.164 252.099 188.259 252.055 188.364C252.011 188.469 251.989 188.582 251.991 188.696V188.696V188.748Z" fill="black"/>
<path d="M244.496 212.602C243.143 214.2 241.567 215.595 239.816 216.743C238.057 217.884 236.15 218.782 234.149 219.412C233.95 219.476 233.783 219.617 233.687 219.804C233.592 219.991 233.574 220.208 233.638 220.408C233.703 220.608 233.844 220.774 234.031 220.87C234.217 220.966 234.435 220.983 234.635 220.919C236.775 220.244 238.815 219.285 240.7 218.069C242.582 216.845 244.275 215.353 245.726 213.641C245.865 213.479 245.934 213.269 245.918 213.056C245.901 212.843 245.801 212.646 245.639 212.506C245.559 212.439 245.467 212.387 245.367 212.355C245.267 212.323 245.161 212.311 245.056 212.32C244.952 212.329 244.85 212.358 244.757 212.407C244.663 212.455 244.581 212.521 244.513 212.602H244.496Z" fill="black"/>
<path d="M221.575 220.867C217.293 220.649 213.039 220.048 208.863 219.073C208.765 219.05 208.664 219.047 208.565 219.063C208.466 219.079 208.371 219.115 208.285 219.168C208.2 219.221 208.126 219.291 208.067 219.373C208.009 219.454 207.967 219.547 207.945 219.645C207.922 219.744 207.919 219.847 207.935 219.947C207.952 220.047 207.988 220.143 208.042 220.229C208.096 220.315 208.167 220.39 208.25 220.449C208.333 220.508 208.426 220.55 208.525 220.572C212.794 221.577 217.144 222.197 221.523 222.426C221.73 222.434 221.932 222.359 222.084 222.219C222.235 222.078 222.325 221.883 222.333 221.676C222.341 221.47 222.267 221.268 222.126 221.116C221.986 220.964 221.791 220.875 221.584 220.867H221.575Z" fill="black"/>
<path d="M196.385 215.504C192.304 214.127 188.275 212.593 184.254 210.947C184.075 210.894 183.883 210.909 183.715 210.989C183.546 211.07 183.414 211.21 183.343 211.382C183.272 211.554 183.267 211.747 183.33 211.923C183.392 212.098 183.518 212.245 183.682 212.333C187.694 213.988 191.749 215.547 195.874 216.942C195.971 216.986 196.076 217.008 196.182 217.009C196.289 217.009 196.394 216.988 196.491 216.945C196.588 216.903 196.676 216.84 196.748 216.762C196.82 216.683 196.874 216.591 196.908 216.49C196.942 216.389 196.955 216.283 196.945 216.177C196.935 216.071 196.904 215.968 196.852 215.876C196.8 215.783 196.73 215.702 196.645 215.638C196.56 215.574 196.463 215.528 196.359 215.504H196.385Z" fill="black"/>
<path d="M172.417 205.749L160.728 200.135C160.642 200.085 160.547 200.053 160.449 200.042C160.35 200.03 160.25 200.039 160.155 200.068C160.06 200.097 159.972 200.145 159.897 200.21C159.822 200.274 159.76 200.354 159.717 200.443C159.674 200.532 159.65 200.63 159.646 200.729C159.642 200.828 159.659 200.927 159.696 201.019C159.732 201.111 159.787 201.195 159.857 201.265C159.927 201.335 160.011 201.39 160.104 201.426L171.819 207.101C171.994 207.181 172.194 207.189 172.375 207.124C172.556 207.058 172.704 206.925 172.788 206.752C172.872 206.578 172.884 206.379 172.823 206.197C172.762 206.014 172.632 205.863 172.46 205.775V205.775L172.417 205.749Z" fill="black"/>
<path d="M149.149 194.251L137.65 188.187C137.499 188.109 137.324 188.094 137.162 188.145C137 188.195 136.864 188.306 136.783 188.455C136.706 188.606 136.691 188.781 136.741 188.943C136.792 189.105 136.903 189.241 137.052 189.321L148.533 195.386C148.613 195.437 148.702 195.471 148.796 195.486C148.889 195.501 148.985 195.497 149.076 195.473C149.168 195.449 149.253 195.406 149.328 195.348C149.402 195.289 149.463 195.215 149.508 195.132C149.552 195.048 149.579 194.957 149.586 194.862C149.593 194.768 149.581 194.673 149.549 194.584C149.518 194.495 149.469 194.413 149.404 194.344C149.34 194.274 149.261 194.219 149.174 194.182V194.182L149.149 194.251Z" fill="black"/>
<path d="M126.171 182.102L114.646 176.038C114.578 176.002 114.503 175.98 114.426 175.973C114.35 175.966 114.272 175.975 114.199 175.998C114.126 176.021 114.058 176.059 113.999 176.109C113.94 176.159 113.892 176.22 113.857 176.289C113.784 176.427 113.768 176.588 113.813 176.738C113.859 176.887 113.962 177.012 114.1 177.086L125.581 183.151C125.654 183.196 125.735 183.227 125.82 183.239C125.905 183.252 125.992 183.247 126.075 183.225C126.158 183.203 126.235 183.164 126.302 183.11C126.37 183.056 126.425 182.989 126.465 182.914C126.505 182.838 126.529 182.754 126.535 182.668C126.542 182.583 126.53 182.497 126.502 182.416C126.473 182.335 126.429 182.26 126.37 182.198C126.312 182.135 126.241 182.085 126.162 182.05L126.171 182.102Z" fill="black"/>
<path d="M102.963 170.329C99.0321 168.456 95.0027 166.796 90.8928 165.356C90.7607 165.312 90.6165 165.322 90.4915 165.383C90.3666 165.445 90.271 165.554 90.2256 165.685C90.1838 165.818 90.1947 165.961 90.2561 166.085C90.3174 166.209 90.4245 166.305 90.5549 166.352C94.6203 167.801 98.606 169.464 102.496 171.334C102.629 171.397 102.782 171.405 102.921 171.355C103.06 171.306 103.173 171.203 103.236 171.07C103.3 170.937 103.307 170.784 103.258 170.645C103.208 170.506 103.105 170.392 102.972 170.329H102.963Z" fill="black"/>
<path d="M77.9046 163.587C75.6743 163.908 73.5531 164.758 71.7177 166.065C69.9204 167.414 68.4413 169.141 67.3851 171.124C67.3545 171.176 67.3347 171.234 67.3269 171.294C67.319 171.354 67.3233 171.415 67.3395 171.473C67.3557 171.531 67.3834 171.586 67.421 171.633C67.4586 171.68 67.5053 171.719 67.5584 171.748C67.6646 171.805 67.7889 171.819 67.9051 171.787C68.0214 171.755 68.1207 171.679 68.1823 171.575C69.1812 169.719 70.5742 168.105 72.2635 166.844C73.9792 165.632 75.9617 164.85 78.0433 164.566C78.1076 164.556 78.1695 164.534 78.2252 164.501C78.281 164.467 78.3296 164.423 78.3683 164.371C78.4069 164.318 78.4348 164.259 78.4504 164.196C78.466 164.133 78.469 164.067 78.4592 164.003C78.4378 163.874 78.367 163.758 78.2619 163.681C78.1567 163.603 78.0254 163.569 77.8959 163.587H77.9046Z" fill="black"/>
<path d="M63.3121 183.558C62.3936 187.795 61.6311 192.066 60.34 196.172C60.3251 196.218 60.3193 196.266 60.323 196.314C60.3268 196.361 60.3399 196.408 60.3616 196.451C60.3833 196.493 60.4133 196.531 60.4497 196.562C60.4861 196.593 60.5283 196.617 60.5739 196.632C60.667 196.662 60.7683 196.654 60.8558 196.611C60.9434 196.567 61.0102 196.49 61.0418 196.398C62.3936 192.239 63.1908 187.959 64.1439 183.74C64.1565 183.683 64.1576 183.624 64.1474 183.567C64.1372 183.509 64.1158 183.455 64.0844 183.406C64.0531 183.356 64.0123 183.314 63.9645 183.281C63.9168 183.247 63.8629 183.224 63.806 183.211C63.7491 183.199 63.6903 183.198 63.6329 183.208C63.5756 183.218 63.5208 183.239 63.4717 183.271C63.4226 183.302 63.3803 183.343 63.3469 183.391C63.3136 183.438 63.2899 183.492 63.2774 183.549L63.3121 183.558Z" fill="black"/>
<path d="M53.6629 206.845C51.9896 208.163 50.0455 209.095 47.9699 209.574C45.8769 210.031 43.7175 210.095 41.601 209.765C41.5679 209.76 41.5342 209.762 41.5019 209.77C41.4695 209.778 41.4392 209.793 41.4125 209.813C41.3859 209.833 41.3635 209.858 41.3468 209.887C41.3301 209.916 41.3193 209.948 41.315 209.981C41.3075 210.048 41.3258 210.114 41.3661 210.168C41.4064 210.221 41.4657 210.257 41.5316 210.267C43.7078 210.628 45.9322 210.581 48.0912 210.129C50.2563 209.647 52.2888 208.695 54.0442 207.339C54.0772 207.314 54.1049 207.283 54.1258 207.247C54.1467 207.211 54.1604 207.172 54.166 207.131C54.1717 207.09 54.1691 207.048 54.1586 207.008C54.1481 206.968 54.1299 206.93 54.1048 206.897C54.0798 206.864 54.0485 206.837 54.0128 206.816C53.977 206.795 53.9374 206.781 53.8964 206.776C53.8554 206.77 53.8137 206.773 53.7736 206.783C53.7335 206.794 53.6959 206.812 53.6629 206.837V206.845Z" fill="black"/>
<path d="M29.5908 205.237C25.8545 203.051 22.2966 200.574 18.9499 197.829C18.9357 197.817 18.9193 197.808 18.9015 197.803C18.8838 197.797 18.8652 197.795 18.8467 197.797C18.8282 197.798 18.8102 197.804 18.7937 197.812C18.7772 197.821 18.7626 197.832 18.7507 197.847C18.7387 197.861 18.7296 197.877 18.7241 197.895C18.7185 197.913 18.7164 197.931 18.718 197.95C18.7196 197.968 18.7248 197.986 18.7334 198.003C18.742 198.019 18.7537 198.034 18.7679 198.046C22.1083 200.817 25.6603 203.323 29.3915 205.54C29.4365 205.566 29.4897 205.573 29.5398 205.56C29.59 205.547 29.6331 205.515 29.6601 205.471C29.6739 205.449 29.6832 205.424 29.6872 205.399C29.6912 205.373 29.6899 205.347 29.6834 205.322C29.6769 205.296 29.6653 205.273 29.6494 205.252C29.6335 205.232 29.6135 205.215 29.5908 205.202V205.237Z" fill="black"/>
<path d="M9.20129 189.275L-0.00113395 180.1C-0.00113395 180.1 -0.00113395 180.1 -0.00113395 180.143L9.08863 189.396C9.10357 189.411 9.12383 189.42 9.14496 189.42C9.16609 189.42 9.18635 189.411 9.20129 189.396C9.21622 189.382 9.22461 189.361 9.22461 189.34C9.22461 189.319 9.21622 189.299 9.20129 189.284V189.275Z" fill="black"/>
<path d="M384.185 37.6679L371.759 33.8564C371.738 33.8495 371.715 33.8469 371.693 33.8487C371.671 33.8504 371.65 33.8565 371.63 33.8666C371.61 33.8766 371.593 33.8904 371.579 33.9073C371.564 33.9241 371.553 33.9436 371.546 33.9646C371.54 33.9857 371.537 34.0079 371.539 34.0299C371.54 34.052 371.547 34.0735 371.557 34.0932C371.567 34.1129 371.581 34.1304 371.597 34.1448C371.614 34.1592 371.634 34.17 371.655 34.1769V34.1769L384.107 37.8845C384.136 37.8928 384.168 37.8893 384.196 37.8748C384.223 37.8603 384.244 37.8358 384.254 37.8065C384.262 37.7789 384.26 37.7492 384.247 37.7234C384.234 37.6976 384.212 37.6778 384.185 37.6679V37.6679Z" fill="black"/>
<path d="M408.968 45.5264L396.577 41.6196C396.569 41.6158 396.561 41.6135 396.552 41.6131C396.544 41.6127 396.535 41.6141 396.527 41.6171C396.519 41.6202 396.512 41.6248 396.506 41.6308C396.5 41.6368 396.496 41.644 396.493 41.6519C396.49 41.6598 396.488 41.6683 396.489 41.6768C396.489 41.6852 396.491 41.6935 396.495 41.7011C396.499 41.7087 396.504 41.7153 396.511 41.7207C396.517 41.726 396.525 41.73 396.533 41.7322V41.7322L408.968 45.5264Z" fill="black"/>
<path d="M178.557 61.3414L162.706 74.4501L143.426 67.2792L139.997 46.9997L178.557 61.3414Z" fill="black"/>
<path d="M250.11 163.973L297.663 124.646L316.943 131.817L253.539 184.252L234.276 177.087L234.259 177.081L250.11 163.973Z" fill="black"/>
<path d="M253.539 184.252L258.492 213.547L263.714 245.002L225.295 230.744L241.146 217.635L234.276 177.087L253.539 184.252Z" fill="black"/>
<path d="M174.284 249.796L170.856 229.516L190.135 236.687L174.284 249.796Z" fill="black"/>
<path d="M162.706 74.4501L178.557 61.3414L217.116 75.6833L185.414 101.901L146.855 87.5588L162.706 74.4501Z" fill="url(#paint0_linear_8843_37667)"/>
<path d="M162.706 74.4501L146.855 87.5588L157.141 148.398L80.0225 119.714L143.426 67.2792L162.706 74.4501Z" fill="url(#paint1_linear_8843_37667)"/>
<path d="M210.258 35.1241L178.557 61.3414L139.997 46.9997L171.7 20.7822L210.258 35.1241Z" fill="url(#paint2_linear_8843_37667)"/>
<path d="M164.028 188.952L164.031 188.969L163.998 188.957L163.99 188.906L157.141 148.398L146.855 87.5588L185.414 101.901L202.555 203.282L164.028 188.952Z" fill="url(#paint3_linear_8843_37667)"/>
<path d="M209.412 243.841L170.885 229.511L164.031 188.969L202.558 203.299L209.412 243.841Z" fill="#5869DD"/>
<path d="M209.445 243.853L202.587 203.294L234.262 177.098L241.022 217.656L225.172 230.765L225.24 230.79L209.445 243.853Z" fill="url(#paint4_linear_8843_37667)"/>
<path d="M316.943 131.817L327.229 192.656L263.913 245.076L253.627 184.237L316.943 131.817Z" fill="url(#paint5_linear_8843_37667)"/>
<path d="M241.961 8.90664L280.52 23.2485L280.522 23.2655L217.203 75.6685L217.156 75.6506L217.116 75.6833L178.557 61.3414L210.258 35.1241L241.961 8.90664Z" fill="url(#paint6_linear_8843_37667)"/>
<path d="M80.0225 119.714L157.141 148.398L163.99 188.906L86.9674 160.258L80.0225 119.714Z" fill="url(#paint7_linear_8843_37667)"/>
<path d="M97.1659 221.112L80.0225 119.714L86.9674 160.258L163.99 188.906L163.998 188.957L170.856 229.516L174.284 249.796L97.1659 221.112Z" fill="url(#paint8_linear_8843_37667)"/>
<path d="M217.116 75.6833L234.259 177.081L202.571 203.288L202.555 203.282L185.414 101.901L217.116 75.6833Z" fill="url(#paint9_linear_8843_37667)"/>
<path d="M297.663 124.646L250.11 163.973L234.259 177.081L217.116 75.6833L217.156 75.6506L217.203 75.6685L280.522 23.2655L297.663 124.646Z" fill="url(#paint10_linear_8843_37667)"/>
<path d="M327.229 192.656L279.676 231.982M327.229 192.656L316.943 131.817M327.229 192.656L263.913 245.076M260.397 224.811L258.492 213.547M250.11 163.973L297.663 124.646M250.11 163.973L234.259 177.081M250.11 163.973L202.571 203.288M297.663 124.646L316.943 131.817M297.663 124.646L280.522 23.2655M316.943 131.817L253.539 184.252M316.943 131.817L253.627 184.237M232.996 62.5696L280.522 23.2655M250.14 163.968L234.276 177.087M202.587 203.294L209.445 243.853M202.587 203.294L202.571 203.288M202.587 203.294L234.262 177.098M209.445 243.853L209.412 243.841M209.445 243.853L225.24 230.79M241.146 217.635L234.276 177.087M241.146 217.635L225.295 230.744M241.146 217.635L234.262 177.098M241.961 8.90664L280.52 23.2485L280.522 23.2655M241.961 8.90664L146.855 87.5588M241.961 8.90664L210.258 35.1241M241.961 8.90664L178.557 61.3414M146.855 87.5588L185.414 101.901M146.855 87.5588L178.557 61.3414M146.855 87.5588L162.706 74.4501M146.855 87.5588L157.141 148.398M146.855 87.5588L163.99 188.906M185.414 101.901L202.555 203.282M185.414 101.901L217.116 75.6833M185.414 101.901L217.156 75.6506M232.967 62.5745L217.156 75.6506M202.558 203.299L202.555 203.282M202.558 203.299L202.571 203.288M202.558 203.299L164.031 188.969M202.558 203.299L209.412 243.841M163.998 188.957L174.284 249.796M163.998 188.957L170.856 229.516M163.998 188.957L163.99 188.906M163.998 188.957L164.031 188.969M178.557 61.3414L139.997 46.9997M178.557 61.3414L217.116 75.6833M178.557 61.3414L162.706 74.4501M178.557 61.3414L210.258 35.1241M139.997 46.9997L171.7 20.7822L210.258 35.1241M139.997 46.9997L143.426 67.2792M143.426 67.2792L162.706 74.4501M143.426 67.2792L80.0225 119.714M157.141 148.398L80.0225 119.714M157.141 148.398L163.99 188.906M80.0225 119.714L97.1659 221.112L174.284 249.796M80.0225 119.714L86.9674 160.258L163.99 188.906M174.284 249.796L190.135 236.687M174.284 249.796L170.856 229.516M170.856 229.516L209.415 243.858M170.856 229.516L190.135 236.687M209.415 243.858L190.135 236.687M209.415 243.858L209.412 243.841M217.116 75.6833L234.259 177.081M217.116 75.6833L217.156 75.6506M234.259 177.081L234.276 177.087M234.259 177.081L202.571 203.288M234.259 177.081L234.262 177.098M253.539 184.252L234.276 177.087M253.539 184.252L258.492 213.547M164.086 188.942L163.99 188.906M279.764 231.967L263.913 245.076M269.478 171.129L253.627 184.237M217.203 75.6685L280.549 23.2435L280.522 23.2655M217.203 75.6685L280.522 23.2655M217.203 75.6685L217.156 75.6506M178.645 61.3266L217.156 75.6506M263.913 245.076L253.627 184.237M263.913 245.076L263.714 245.002M253.627 184.237L258.492 213.547M234.276 177.087L234.262 177.098M225.295 230.744L263.714 245.002M225.295 230.744L225.24 230.79M258.492 213.547L263.714 245.002M263.714 245.002L263.731 245.107L225.24 230.79M263.714 245.002L225.24 230.79M202.571 203.288L202.555 203.282M202.555 203.282L164.028 188.952L164.031 188.969M164.031 188.969L170.885 229.511L209.412 243.841M234.262 177.098L241.022 217.656L225.172 230.765L225.24 230.79" stroke="black" stroke-width="1.73304" stroke-miterlimit="10" stroke-linecap="round" stroke-linejoin="round"/>
<defs>
<linearGradient id="paint0_linear_8843_37667" x1="150.821" y1="38.9933" x2="231.843" y2="89.2474" gradientUnits="userSpaceOnUse">
<stop stop-color="#D6FFBB"/>
<stop offset="1" stop-color="#5869DD"/>
</linearGradient>
<linearGradient id="paint1_linear_8843_37667" x1="66.3355" y1="83.1858" x2="167.285" y2="116.547" gradientUnits="userSpaceOnUse">
<stop stop-color="#D6FFBB"/>
<stop offset="1" stop-color="#5869DD"/>
</linearGradient>
<linearGradient id="paint2_linear_8843_37667" x1="132.191" y1="28.1619" x2="204.976" y2="47.6666" gradientUnits="userSpaceOnUse">
<stop stop-color="#D6FFBB"/>
<stop offset="1" stop-color="#5869DD"/>
</linearGradient>
<linearGradient id="paint3_linear_8843_37667" x1="157.32" y1="38.9933" x2="177.701" y2="201.897" gradientUnits="userSpaceOnUse">
<stop stop-color="#D6FFBB"/>
<stop offset="1" stop-color="#5869DD"/>
</linearGradient>
<linearGradient id="paint4_linear_8843_37667" x1="276.466" y1="150.341" x2="169.025" y2="226.604" gradientUnits="userSpaceOnUse">
<stop stop-color="#D6FFBB"/>
<stop offset="1" stop-color="#5869DD"/>
</linearGradient>
<linearGradient id="paint5_linear_8843_37667" x1="352.72" y1="185.435" x2="164.253" y2="178.056" gradientUnits="userSpaceOnUse">
<stop stop-color="#D6FFBB"/>
<stop offset="1" stop-color="#5869DD"/>
</linearGradient>
<linearGradient id="paint6_linear_8843_37667" x1="176.383" y1="34.2275" x2="257.405" y2="81.882" gradientUnits="userSpaceOnUse">
<stop stop-color="#D6FFBB"/>
<stop offset="1" stop-color="#5869DD"/>
</linearGradient>
<linearGradient id="paint7_linear_8843_37667" x1="49.0051" y1="148.175" x2="171.62" y2="198.427" gradientUnits="userSpaceOnUse">
<stop stop-color="#D6FFBB"/>
<stop offset="1" stop-color="#5869DD"/>
</linearGradient>
<linearGradient id="paint8_linear_8843_37667" x1="55.0707" y1="175.903" x2="171.619" y2="198.427" gradientUnits="userSpaceOnUse">
<stop stop-color="#D6FFBB"/>
<stop offset="1" stop-color="#5869DD"/>
</linearGradient>
<linearGradient id="paint9_linear_8843_37667" x1="317.192" y1="129.544" x2="166.848" y2="56.3311" gradientUnits="userSpaceOnUse">
<stop stop-color="#D6FFBB"/>
<stop offset="1" stop-color="#5869DD"/>
</linearGradient>
<linearGradient id="paint10_linear_8843_37667" x1="322.392" y1="123.479" x2="183.312" y2="44.1993" gradientUnits="userSpaceOnUse">
<stop stop-color="#D6FFBB"/>
<stop offset="1" stop-color="#5869DD"/>
</linearGradient>
</defs>
</svg>
